<?xml version="1.0" standalone="no"?>
<!DOCTYPE svg PUBLIC "-//W3C//DTD SVG 20010904//EN"
 "http://www.w3.org/TR/2001/REC-SVG-20010904/DTD/svg10.dtd">
<svg version="1.0" xmlns="http://www.w3.org/2000/svg"
 width="300.000000pt" height="300.000000pt" viewBox="0 0 300.000000 300.000000"
 preserveAspectRatio="xMidYMid meet">

<g transform="translate(0.000000,300.000000) scale(0.100000,-0.100000)"
fill="#000000" stroke="none">
<path d="M1543 2197 l-352 -613 -63 7 c-137 13 -278 -26 -381 -106 -150 -119
-267 -350 -326 -650 -38 -190 -61 -519 -41 -579 23 -70 -26 -66 795 -66 l742
0 21 23 c28 29 38 78 22 107 -7 13 -41 50 -76 82 -77 72 -145 172 -189 277
-59 140 -79 231 -105 481 -12 121 -55 213 -132 286 -29 28 -61 55 -71 60 -15
9 21 77 328 608 190 329 343 602 340 607 -5 8 -149 89 -156 89 -2 -1 -162
-276 -356 -613z m-308 -821 c63 -29 111 -77 140 -141 26 -58 42 -145 26 -145
-9 0 -530 227 -539 235 -8 7 89 56 138 69 71 20 168 12 235 -18z m-145 -359
l344 -153 17 -67 c27 -106 85 -247 138 -332 l49 -80 -96 -3 c-94 -3 -96 -2
-118 25 -38 47 -77 125 -95 188 l-16 60 -94 0 -94 0 3 -35 c5 -52 30 -138 58
-192 l25 -49 -102 3 -102 3 -19 65 c-10 36 -26 118 -35 183 l-16 117 -95 0
-95 0 7 -72 c8 -76 39 -250 51 -280 7 -17 -3 -18 -118 -18 l-126 0 5 73 c16
233 46 416 91 547 29 85 70 170 81 170 4 0 162 -69 352 -153z"/>
<path d="M1870 1215 l0 -95 285 0 285 0 0 95 0 95 -285 0 -285 0 0 -95z"/>
<path d="M2060 845 l0 -95 285 0 285 0 0 95 0 95 -285 0 -285 0 0 -95z"/>
<path d="M2250 465 l0 -95 280 0 280 0 0 95 0 95 -280 0 -280 0 0 -95z"/>
</g>
</svg>
