<?xml version="1.0" standalone="no"?>
<!DOCTYPE svg PUBLIC "-//W3C//DTD SVG 20010904//EN"
 "http://www.w3.org/TR/2001/REC-SVG-20010904/DTD/svg10.dtd">
<svg version="1.0" xmlns="http://www.w3.org/2000/svg"
 width="512.000000pt" height="512.000000pt" viewBox="0 0 512.000000 512.000000"
 preserveAspectRatio="xMidYMid meet">

<g transform="translate(0.000000,512.000000) scale(0.100000,-0.100000)"
fill="#000000" stroke="none">
<path d="M3120 4891 c-77 -25 -125 -71 -149 -140 -8 -25 -11 -324 -11 -1077
l0 -1044 -224 0 -224 0 -4 143 c-3 136 -4 144 -33 196 -16 29 -57 78 -92 108
l-63 55 0 89 0 89 84 0 c115 0 132 13 129 103 -9 226 -169 427 -398 500 -67
21 -87 22 -405 22 l-335 0 -47 -28 c-83 -48 -126 -156 -98 -242 16 -47 75
-114 117 -132 20 -8 71 -13 131 -13 91 0 100 -2 121 -24 l23 -25 -96 -117
c-76 -94 -96 -125 -96 -150 0 -39 27 -64 68 -64 29 0 42 13 129 119 54 66 101
120 104 120 3 1 15 -8 27 -19 20 -19 22 -31 22 -119 l0 -99 -103 -60 c-160
-93 -187 -141 -187 -333 l0 -119 -247 0 c-151 0 -264 -4 -288 -11 -55 -15
-120 -82 -135 -139 -30 -110 30 -224 135 -257 28 -9 31 -14 42 -84 6 -41 44
-454 83 -919 80 -947 74 -905 159 -965 l43 -30 1427 0 1427 0 41 27 c57 37 87
90 87 152 1 38 -35 167 -136 496 -75 245 -141 479 -147 520 -27 173 -148 337
-310 418 -44 22 -105 45 -135 52 l-54 11 -4 77 c-4 92 -28 146 -81 181 l-37
24 0 99 c0 111 -14 138 -70 138 -55 0 -70 -28 -70 -130 l0 -90 -70 0 -70 0 0
1255 0 1256 25 24 c13 14 34 25 45 25 12 0 32 -11 45 -25 23 -22 25 -32 25
-110 0 -79 2 -88 26 -111 19 -20 31 -24 52 -20 50 12 62 39 62 136 0 96 -11
139 -47 188 -43 57 -149 94 -213 73z m-1090 -1101 c100 -13 182 -54 249 -125
49 -52 91 -127 105 -187 l6 -28 -249 0 -250 0 -101 86 -100 85 0 83 c0 45 3
86 7 89 10 10 247 8 333 -3z m-480 -65 l0 -65 -58 0 c-72 0 -102 19 -102 62 0
51 24 68 97 68 l63 0 0 -65z m630 -485 l0 -70 -120 0 -120 0 0 70 0 70 120 0
120 0 0 -70z m104 -262 c77 -69 86 -92 86 -233 l0 -115 -360 0 -360 0 0 110
c0 147 4 155 133 230 l102 60 170 0 170 0 59 -52z m676 -558 l0 -70 -970 0
-971 0 -24 25 c-14 13 -25 34 -25 45 0 12 11 32 25 45 l24 25 971 0 970 0 0
-70z m0 -223 c0 -7 -14 -21 -30 -31 -17 -10 -43 -36 -57 -58 -22 -33 -27 -54
-31 -124 -3 -65 -8 -84 -19 -84 -8 0 -49 -12 -91 -26 -94 -31 -196 -98 -257
-167 -57 -65 -120 -189 -136 -267 l-11 -59 -57 -13 c-93 -21 -330 -16 -426 10
-89 25 -221 85 -291 133 -211 145 -367 396 -390 628 l-7 71 902 0 c727 0 901
-2 901 -13z m-1604 -707 c146 -137 324 -226 527 -265 85 -16 294 -20 365 -6
23 5 42 5 42 2 0 -4 -54 -182 -121 -396 -86 -278 -119 -401 -117 -427 l4 -38
-353 0 c-340 0 -354 1 -373 20 -11 11 -20 28 -20 38 0 9 -22 280 -50 602 -27
322 -50 595 -50 608 0 21 5 17 38 -25 22 -26 70 -77 108 -113z m1344 -263 c0
-8 -29 -204 -65 -438 -36 -233 -65 -425 -65 -426 0 -2 -76 -3 -170 -3 -158 0
-171 1 -191 21 -11 11 -18 28 -15 37 26 90 249 809 253 815 2 4 60 7 129 7 96
0 124 -3 124 -13z m400 -427 l0 -440 -196 0 c-181 0 -195 1 -190 18 2 9 32
202 66 427 34 226 63 416 65 423 3 9 38 12 130 12 l125 0 0 -440z m400 436 c0
-2 29 -192 65 -421 36 -230 65 -426 65 -436 0 -18 -11 -19 -189 -19 l-188 0
-6 83 c-4 45 -7 243 -7 440 l0 357 130 0 c72 0 130 -2 130 -4z m519 -399 c68
-221 126 -409 128 -419 3 -9 -5 -26 -16 -37 -20 -20 -32 -21 -186 -21 -163 0
-165 0 -170 23 -2 12 -32 200 -65 417 -33 217 -62 405 -65 418 -5 22 -5 22
122 22 l128 0 124 -403z"/>
<path d="M3266 4249 c-26 -20 -26 -22 -26 -148 0 -120 1 -129 23 -149 29 -28
57 -28 91 -1 26 20 26 22 26 145 0 119 -1 126 -25 149 -30 30 -54 31 -89 4z"/>
<path d="M3282 3699 c-11 -4 -25 -17 -31 -28 -7 -13 -11 -179 -11 -500 0 -468
1 -482 20 -501 11 -11 33 -20 50 -20 17 0 39 9 50 20 19 19 20 33 20 503 0
409 -2 486 -15 504 -17 24 -52 33 -83 22z"/>
</g>
</svg>
