<?xml version="1.0" standalone="no"?>
<!DOCTYPE svg PUBLIC "-//W3C//DTD SVG 20010904//EN"
 "http://www.w3.org/TR/2001/REC-SVG-20010904/DTD/svg10.dtd">
<svg version="1.0" xmlns="http://www.w3.org/2000/svg"
 width="256.000000pt" height="256.000000pt" viewBox="0 0 256.000000 256.000000"
 preserveAspectRatio="xMidYMid meet">

<g transform="translate(0.000000,256.000000) scale(0.100000,-0.100000)"
fill="#000000" stroke="none">
<path d="M482 2548 c-8 -8 -12 -59 -12 -162 l0 -151 -85 -105 -84 -105 -1
-182 0 -182 -102 -3 -103 -3 -3 -114 c-2 -85 1 -117 10 -123 7 -4 37 -8 66 -8
28 0 52 -3 52 -7 0 -36 163 -1273 170 -1290 l10 -23 513 0 c484 0 515 -1 530
-18 9 -10 38 -29 64 -43 67 -34 220 -35 306 -1 72 28 141 28 209 1 75 -29 210
-37 274 -15 67 22 117 65 148 128 25 50 26 57 26 242 0 213 -7 241 -70 304
-62 62 -103 77 -215 76 -79 -1 -112 -5 -159 -24 -32 -12 -80 -22 -105 -22 -62
0 -171 39 -171 61 0 17 66 531 76 594 l6 37 52 0 c29 0 57 5 64 12 13 13 17
192 6 222 -5 13 -24 16 -105 16 l-99 0 0 73 0 72 -105 105 -105 105 0 72 c0
65 2 73 26 92 15 12 30 21 33 21 4 0 29 -45 56 -101 28 -55 53 -103 57 -105
10 -7 68 25 68 36 0 6 -25 60 -55 121 l-56 110 23 19 c18 15 39 19 103 20 120
0 125 6 125 134 0 66 -4 106 -12 114 -19 19 -477 16 -552 -3 -155 -41 -270
-173 -284 -327 -6 -73 7 -88 75 -88 l43 0 0 -58 c0 -57 0 -58 -60 -117 l-59
-59 -3 -115 -3 -116 -42 -3 -43 -3 0 183 -1 183 -84 105 -85 105 0 151 c0 103
-4 154 -12 162 -8 8 -58 12 -158 12 -100 0 -150 -4 -158 -12z m246 -180 l-3
-103 -85 0 -85 0 -3 103 -3 102 91 0 91 0 -3 -102z m932 49 l0 -53 -90 -72
-89 -72 -161 0 c-178 0 -174 -2 -145 67 32 76 100 143 172 169 25 8 87 13 176
14 l137 0 0 -53z m170 13 l0 -40 -40 0 -40 0 0 40 0 40 40 0 40 0 0 -40z
m-1037 -310 c26 -32 47 -62 47 -65 0 -3 -90 -5 -200 -5 -110 0 -200 2 -200 5
0 3 21 33 48 65 l47 60 105 0 105 0 48 -60z m657 -30 l0 -40 -85 0 -85 0 0 40
0 40 85 0 85 0 0 -40z m-552 -277 l-3 -148 -255 0 -255 0 -3 148 -3 147 261 0
261 0 -3 -147z m669 55 l93 -93 0 -57 0 -58 -252 2 -253 3 -3 94 -3 95 53 53
52 53 110 0 111 0 92 -92z m-1057 -333 l0 -45 -170 0 -170 0 0 45 0 45 170 0
170 0 0 -45z m680 -97 c0 -79 3 -153 6 -166 5 -18 40 -40 148 -94 77 -39 144
-76 148 -82 15 -23 8 -56 -16 -71 -23 -15 -29 -14 -125 34 -55 28 -107 51
-115 51 -8 0 -22 -10 -30 -22 -13 -19 -16 -60 -16 -252 0 -222 -1 -230 -22
-253 -12 -13 -30 -23 -40 -23 -17 0 -18 13 -18 190 l0 190 -45 0 -45 0 0 -195
0 -195 -40 0 -40 0 0 195 0 195 -45 0 -45 0 0 -195 0 -195 -40 0 -40 0 0 195
0 195 -45 0 -45 0 0 -190 c0 -181 -1 -190 -19 -190 -11 0 -29 12 -40 26 -21
26 -21 36 -21 510 l0 484 295 0 295 0 0 -142z m688 100 l-3 -43 -297 -3 -298
-2 0 45 0 45 301 0 300 0 -3 -42z m-1366 -542 l3 -414 31 -39 c56 -71 68 -73
347 -73 269 0 289 3 339 56 43 47 48 73 48 280 l0 194 72 -36 c60 -30 79 -35
116 -31 102 11 154 131 93 215 -12 17 -69 52 -150 92 l-131 64 0 53 0 53 230
0 c197 0 230 -2 230 -15 0 -17 -67 -543 -75 -591 -5 -30 -8 -32 -61 -38 -68
-8 -121 -34 -168 -82 -61 -63 -68 -94 -64 -317 l3 -197 -456 0 -455 0 -77 603
c-43 331 -77 610 -77 620 0 15 12 17 100 17 l99 0 3 -414z m1288 -341 c40 -14
94 -25 120 -25 26 0 80 11 120 25 155 53 283 26 329 -68 38 -79 20 -152 -52
-211 -31 -25 -47 -30 -109 -34 -61 -4 -86 0 -152 23 -102 35 -170 35 -272 0
-66 -23 -91 -27 -152 -23 -62 4 -78 9 -109 34 -72 59 -90 132 -52 211 46 94
174 121 329 68z m-144 -395 c75 0 106 5 160 25 36 14 83 25 104 25 21 0 68
-11 104 -25 54 -20 85 -25 160 -25 83 0 100 3 150 28 l56 29 0 -46 c-1 -60
-29 -122 -71 -152 -28 -20 -49 -25 -122 -28 -74 -2 -98 1 -150 20 -42 16 -83
24 -127 24 -44 0 -85 -8 -127 -24 -52 -19 -76 -22 -150 -20 -73 3 -94 8 -122
28 -42 30 -70 92 -71 152 l0 46 56 -29 c50 -25 67 -28 150 -28z"/>
<path d="M1750 555 l0 -45 40 0 40 0 0 45 0 45 -40 0 -40 0 0 -45z"/>
<path d="M2180 555 l0 -45 40 0 40 0 0 45 0 45 -40 0 -40 0 0 -45z"/>
<path d="M1580 510 l0 -40 40 0 40 0 0 40 0 40 -40 0 -40 0 0 -40z"/>
<path d="M2010 510 l0 -40 40 0 40 0 0 40 0 40 -40 0 -40 0 0 -40z"/>
</g>
</svg>
